<svg xmlns="http://www.w3.org/2000/svg" xmlns:xlink="http://www.w3.org/1999/xlink" width="500" zoomAndPan="magnify" viewBox="0 0 375 374.999991" height="500" preserveAspectRatio="xMidYMid meet" version="1.0"><defs><clipPath id="256a4e9bd0"><path d="M 11.816406 26.308594 L 362.816406 26.308594 L 362.816406 348.808594 L 11.816406 348.808594 Z M 11.816406 26.308594 " clip-rule="nonzero"/></clipPath></defs><path fill="#e8fdff" d="M 187.304688 31.445312 C 252.109375 31.445312 307.71875 70.847656 331.40625 126.957031 L 43.226562 126.957031 C 66.910156 70.847656 122.503906 31.445312 187.304688 31.445312 Z M 331.40625 248.164062 C 307.699219 304.273438 252.109375 343.671875 187.304688 343.671875 C 122.503906 343.671875 66.910156 304.273438 43.226562 248.164062 Z M 331.40625 248.164062 " fill-opacity="1" fill-rule="evenodd"/><path fill="#26bae3" d="M 36.40625 126.957031 L 338.226562 126.957031 C 348.914062 126.957031 357.65625 135.691406 357.65625 146.363281 L 357.65625 228.753906 C 357.65625 239.429688 348.914062 248.164062 338.226562 248.164062 L 36.40625 248.164062 C 25.71875 248.164062 16.972656 239.429688 16.972656 228.753906 L 16.972656 146.363281 C 16.972656 135.691406 25.71875 126.957031 36.40625 126.957031 Z M 36.40625 126.957031 " fill-opacity="1" fill-rule="evenodd"/><g clip-path="url(#256a4e9bd0)"><path fill="#000000" d="M 338.226562 121.808594 L 334.769531 121.808594 C 311.136719 68.949219 261.449219 33.257812 204.539062 27.214844 C 204.5 27.210938 204.460938 27.203125 204.421875 27.203125 C 198.78125 26.609375 193.070312 26.296875 187.304688 26.296875 C 181.542969 26.296875 175.832031 26.609375 170.191406 27.203125 C 170.148438 27.207031 170.105469 27.210938 170.066406 27.214844 C 113.167969 33.261719 63.492188 68.949219 39.859375 121.808594 L 36.40625 121.808594 C 22.855469 121.808594 11.832031 132.824219 11.832031 146.363281 L 11.832031 228.753906 C 11.832031 242.292969 22.855469 253.3125 36.40625 253.3125 L 39.859375 253.3125 C 63.464844 306.113281 113.0625 341.785156 169.886719 347.882812 C 169.9375 347.890625 169.984375 347.894531 170.035156 347.898438 C 175.726562 348.503906 181.488281 348.820312 187.304688 348.820312 C 193.121094 348.820312 198.882812 348.503906 204.570312 347.898438 C 204.625 347.894531 204.675781 347.890625 204.726562 347.882812 C 261.542969 341.78125 311.144531 306.109375 334.769531 253.3125 L 338.226562 253.3125 C 351.773438 253.3125 362.796875 242.292969 362.796875 228.753906 L 362.796875 146.363281 C 362.796875 132.824219 351.773438 121.808594 338.226562 121.808594 Z M 303.050781 90.355469 C 311.015625 99.828125 317.882812 110.363281 323.425781 121.808594 L 259.226562 121.808594 C 256.933594 110.589844 254.070312 100.058594 250.722656 90.355469 Z M 293.535156 80.058594 L 246.863281 80.058594 C 240.289062 63.917969 232.257812 50.589844 223.234375 40.898438 C 249.929688 47.386719 274.191406 60.984375 293.535156 80.058594 Z M 248.722656 121.808594 L 125.890625 121.808594 C 128.292969 110.472656 131.269531 99.925781 134.734375 90.355469 L 239.875 90.355469 C 243.339844 99.925781 246.320312 110.472656 248.722656 121.808594 Z M 172.085938 37.355469 C 177.105469 36.851562 182.183594 36.59375 187.304688 36.59375 C 192.425781 36.59375 197.503906 36.851562 202.523438 37.355469 C 215.292969 44.238281 226.796875 59.25 235.796875 80.058594 L 138.8125 80.058594 C 147.816406 59.25 159.316406 44.238281 172.085938 37.355469 Z M 151.375 40.898438 C 142.351562 50.589844 134.320312 63.917969 127.746094 80.058594 L 81.089844 80.058594 C 100.433594 60.988281 124.6875 47.390625 151.375 40.898438 Z M 71.578125 90.355469 L 123.890625 90.355469 C 120.539062 100.058594 117.675781 110.589844 115.382812 121.808594 L 51.207031 121.808594 C 56.746094 110.363281 63.613281 99.828125 71.578125 90.355469 Z M 71.589844 284.761719 C 63.628906 275.289062 56.753906 264.757812 51.214844 253.3125 L 115.382812 253.3125 C 117.675781 264.527344 120.539062 275.058594 123.890625 284.761719 Z M 81.113281 295.058594 L 127.753906 295.058594 C 134.332031 311.203125 142.359375 324.539062 151.386719 334.230469 C 124.699219 327.742188 100.453125 314.132812 81.113281 295.058594 Z M 125.890625 253.3125 L 248.722656 253.3125 C 246.320312 264.652344 243.332031 275.191406 239.867188 284.761719 L 134.746094 284.761719 C 131.277344 275.191406 128.292969 264.652344 125.890625 253.3125 Z M 202.535156 337.757812 C 197.511719 338.261719 192.429688 338.523438 187.304688 338.523438 C 182.179688 338.523438 177.101562 338.261719 172.078125 337.757812 C 159.3125 330.875 147.816406 315.855469 138.820312 295.058594 L 235.789062 295.058594 C 226.792969 315.855469 215.296875 330.871094 202.535156 337.757812 Z M 223.226562 334.230469 C 232.25 324.539062 240.28125 311.199219 246.859375 295.058594 L 293.5 295.058594 C 274.15625 314.128906 249.910156 327.742188 223.226562 334.230469 Z M 303.027344 284.761719 L 250.722656 284.761719 C 254.070312 275.058594 256.933594 264.527344 259.226562 253.3125 L 323.414062 253.3125 C 317.867188 264.757812 310.992188 275.289062 303.027344 284.761719 Z M 352.515625 228.753906 C 352.515625 236.617188 346.105469 243.015625 338.226562 243.015625 L 36.40625 243.015625 C 28.523438 243.015625 22.113281 236.617188 22.113281 228.753906 L 22.113281 146.363281 C 22.113281 138.5 28.523438 132.105469 36.40625 132.105469 L 43.199219 132.105469 C 43.214844 132.105469 338.226562 132.105469 338.226562 132.105469 C 346.105469 132.105469 352.515625 138.5 352.515625 146.363281 Z M 352.515625 228.753906 " fill-opacity="1" fill-rule="nonzero"/></g><path fill="#000000" d="M 75.886719 160.0625 C 73.050781 160.0625 70.746094 162.367188 70.746094 165.210938 L 70.746094 181.371094 L 56.332031 181.371094 L 56.332031 165.210938 C 56.332031 162.367188 54.03125 160.0625 51.191406 160.0625 C 48.351562 160.0625 46.050781 162.367188 46.050781 165.210938 L 46.050781 207.851562 C 46.050781 210.695312 48.351562 213 51.191406 213 C 54.03125 213 56.332031 210.695312 56.332031 207.851562 L 56.332031 191.667969 L 70.746094 191.667969 L 70.746094 207.851562 C 70.746094 210.695312 73.050781 213 75.886719 213 C 78.726562 213 81.03125 210.695312 81.03125 207.851562 L 81.03125 165.210938 C 81.03125 162.367188 78.726562 160.0625 75.886719 160.0625 Z M 75.886719 160.0625 " fill-opacity="1" fill-rule="nonzero"/><path fill="#000000" d="M 117.839844 160.0625 L 92.578125 160.0625 C 89.738281 160.0625 87.4375 162.367188 87.4375 165.210938 C 87.4375 168.054688 89.738281 170.359375 92.578125 170.359375 L 100.070312 170.359375 L 100.070312 207.851562 C 100.070312 210.695312 102.371094 213 105.210938 213 C 108.050781 213 110.351562 210.695312 110.351562 207.851562 L 110.351562 170.359375 L 117.839844 170.359375 C 120.679688 170.359375 122.980469 168.054688 122.980469 165.210938 C 122.980469 162.367188 120.679688 160.0625 117.839844 160.0625 Z M 117.839844 160.0625 " fill-opacity="1" fill-rule="nonzero"/><path fill="#000000" d="M 192.492188 160.0625 L 179.359375 160.0625 C 176.519531 160.0625 174.21875 162.367188 174.21875 165.210938 L 174.21875 207.851562 C 174.21875 210.695312 176.519531 213 179.359375 213 C 182.199219 213 184.5 210.695312 184.5 207.851562 L 184.5 193.492188 L 192.492188 193.492188 C 202.578125 193.492188 208.015625 184.667969 208.015625 176.363281 C 208.015625 172.207031 206.699219 168.3125 204.308594 165.402344 C 201.480469 161.957031 197.285156 160.0625 192.492188 160.0625 Z M 192.492188 183.195312 L 184.5 183.195312 L 184.5 170.359375 L 192.492188 170.359375 C 194.226562 170.359375 195.492188 170.875 196.367188 171.941406 C 197.238281 173 197.734375 174.613281 197.734375 176.363281 C 197.734375 179.109375 196.339844 183.195312 192.492188 183.195312 Z M 192.492188 183.195312 " fill-opacity="1" fill-rule="nonzero"/><path fill="#000000" d="M 237.765625 181.167969 C 235.601562 180.421875 233.492188 180.40625 231.628906 180.394531 C 230.300781 180.382812 228.929688 180.375 228.21875 180.050781 C 226.609375 179.316406 226.335938 176.945312 226.289062 176.238281 C 226.113281 173.527344 227.242188 170.777344 228.96875 169.703125 C 231.003906 168.433594 233.894531 169.585938 235.960938 170.777344 C 238.421875 172.195312 241.566406 171.347656 242.980469 168.882812 C 244.398438 166.417969 243.550781 163.273438 241.089844 161.855469 C 232.503906 156.90625 226.40625 159.171875 223.535156 160.960938 C 218.550781 164.066406 215.601562 170.328125 216.027344 176.902344 C 216.402344 182.648438 219.367188 187.328125 223.957031 189.421875 C 226.664062 190.652344 229.375 190.675781 231.554688 190.691406 C 232.683594 190.699219 233.851562 190.707031 234.429688 190.90625 C 235.890625 191.40625 236.367188 193.089844 236.523438 194.046875 C 236.886719 196.316406 236.207031 199.574219 233.851562 201.363281 C 230.792969 203.691406 226.269531 202.386719 223.015625 200.882812 C 220.433594 199.695312 217.382812 200.824219 216.195312 203.40625 C 215.003906 205.988281 216.132812 209.046875 218.710938 210.238281 C 222.96875 212.199219 226.632812 212.917969 229.710938 212.917969 C 234.648438 212.917969 238.085938 211.074219 240.070312 209.566406 C 245.136719 205.710938 247.730469 198.976562 246.675781 192.410156 C 245.800781 186.984375 242.46875 182.777344 237.765625 181.167969 Z M 237.765625 181.167969 " fill-opacity="1" fill-rule="nonzero"/><path fill="#000000" d="M 264.425781 195.132812 C 261.585938 195.132812 259.285156 197.4375 259.285156 200.28125 L 259.285156 200.457031 C 259.285156 203.300781 261.585938 205.605469 264.425781 205.605469 C 267.265625 205.605469 269.566406 203.300781 269.566406 200.457031 L 269.566406 200.28125 C 269.566406 197.4375 267.265625 195.132812 264.425781 195.132812 Z M 264.425781 195.132812 " fill-opacity="1" fill-rule="nonzero"/><path fill="#000000" d="M 264.425781 169.667969 C 261.585938 169.667969 259.285156 171.972656 259.285156 174.816406 L 259.285156 174.992188 C 259.285156 177.835938 261.585938 180.140625 264.425781 180.140625 C 267.265625 180.140625 269.566406 177.835938 269.566406 174.992188 L 269.566406 174.816406 C 269.566406 171.972656 267.265625 169.667969 264.425781 169.667969 Z M 264.425781 169.667969 " fill-opacity="1" fill-rule="nonzero"/><path fill="#000000" d="M 161.171875 160.0625 L 135.910156 160.0625 C 133.070312 160.0625 130.769531 162.367188 130.769531 165.210938 C 130.769531 168.054688 133.070312 170.359375 135.910156 170.359375 L 143.398438 170.359375 L 143.398438 207.851562 C 143.398438 210.695312 145.703125 213 148.539062 213 C 151.378906 213 153.683594 210.695312 153.683594 207.851562 L 153.683594 170.359375 L 161.171875 170.359375 C 164.011719 170.359375 166.3125 168.054688 166.3125 165.210938 C 166.3125 162.367188 164.011719 160.0625 161.171875 160.0625 Z M 161.171875 160.0625 " fill-opacity="1" fill-rule="nonzero"/><path fill="#000000" d="M 302.683594 157.644531 C 300.007812 156.6875 297.070312 158.085938 296.113281 160.761719 L 280.023438 205.945312 C 279.070312 208.625 280.464844 211.570312 283.140625 212.527344 C 283.710938 212.730469 284.292969 212.824219 284.867188 212.824219 C 286.980469 212.824219 288.960938 211.511719 289.710938 209.40625 L 305.800781 164.222656 C 306.753906 161.542969 305.359375 158.597656 302.683594 157.644531 Z M 302.683594 157.644531 " fill-opacity="1" fill-rule="nonzero"/><path fill="#000000" d="M 325.144531 157.644531 C 322.472656 156.691406 319.53125 158.085938 318.574219 160.765625 L 302.507812 205.949219 C 301.554688 208.628906 302.949219 211.570312 305.625 212.527344 C 306.195312 212.730469 306.777344 212.824219 307.347656 212.824219 C 309.460938 212.824219 311.441406 211.511719 312.191406 209.402344 L 328.261719 164.21875 C 329.214844 161.542969 327.820312 158.597656 325.144531 157.644531 Z M 325.144531 157.644531 " fill-opacity="1" fill-rule="nonzero"/></svg>